<?xml version="1.0" encoding="UTF-8"?>
<svg width="752pt" height="752pt" version="1.1" viewBox="0 0 752 752" xmlns="http://www.w3.org/2000/svg">
 <path d="m214.98 210.25c-15.691 0-28.414 12.723-28.414 28.414s12.723 28.414 28.414 28.414h322.04c15.691 0 28.414-12.723 28.414-28.414 0-15.695-12.723-28.414-28.414-28.414zm0 137.34c-15.691 0-28.414 12.723-28.414 28.414s12.723 28.414 28.414 28.414h322.04c15.691 0 28.414-12.723 28.414-28.414 0-15.695-12.723-28.414-28.414-28.414zm0 137.34c-15.691 0-28.414 12.723-28.414 28.414s12.723 28.414 28.414 28.414h322.04c15.691 0 28.414-12.723 28.414-28.414 0-15.695-12.723-28.414-28.414-28.414z" fill="#ffca95"/>
</svg>
